<?xml version="1.0" encoding="UTF-8" standalone="no"?>
<!DOCTYPE svg PUBLIC "-//W3C//DTD SVG 1.1//EN" "http://www.w3.org/Graphics/SVG/1.1/DTD/svg11.dtd">
<!-- Generated by Microsoft Visio, SVG Export CDMIOCCIIntegratedCloudComputingEnvironment.svg Canvas 1 -->
<svg xmlns="http://www.w3.org/2000/svg" xmlns:xlink="http://www.w3.org/1999/xlink" xmlns:ev="http://www.w3.org/2001/xml-events"
		xmlns:v="http://schemas.microsoft.com/visio/2003/SVGExtensions/" width="8.0434in" height="8.21589in"
		viewBox="0 0 579.125 591.544" xml:space="preserve" color-interpolation-filters="sRGB" class="st17">
	<v:documentProperties v:langID="1033" v:viewMarkup="false">
		<v:userDefs>
			<v:ud v:nameU="msvConvertTheme"/>
		</v:userDefs>
	</v:documentProperties>

	<style type="text/css">
	<![CDATA[
		.st1 {marker-end:url(#mrkr13-6);stroke:#000000;stroke-linecap:round;stroke-linejoin:round;stroke-width:0.72}
		.st2 {fill:#000000;fill-opacity:1;stroke:#000000;stroke-opacity:1;stroke-width:0.22222222222222}
		.st3 {visibility:visible}
		.st4 {fill:#000000;fill-opacity:0.75;stroke:#000000;stroke-linecap:round;stroke-linejoin:round;stroke-opacity:0.75}
		.st5 {fill:#ffffff;stroke:#000000;stroke-linecap:round;stroke-linejoin:round;stroke-width:1}
		.st6 {fill:#000000;font-family:Calibri;font-size:1.00001em}
		.st7 {font-size:1em}
		.st8 {fill:none;stroke:#000000;stroke-linecap:round;stroke-linejoin:round;stroke-width:1}
		.st9 {fill:#000000;fill-opacity:0.75;stroke:#000000;stroke-dasharray:3,3;stroke-linecap:round;stroke-linejoin:round;stroke-opacity:0.75}
		.st10 {fill:#ffffff;stroke:#000000;stroke-dasharray:3,3;stroke-linecap:round;stroke-linejoin:round;stroke-width:1}
		.st11 {fill:#000000;font-family:Calibri;font-size:0.833336em}
		.st12 {fill:none;stroke:none;stroke-linecap:round;stroke-linejoin:round;stroke-width:1}
		.st13 {marker-end:url(#mrkr4-102);stroke:#000000;stroke-linecap:round;stroke-linejoin:round;stroke-width:1}
		.st14 {fill:#000000;fill-opacity:1;stroke:#000000;stroke-opacity:1;stroke-width:0.28409092536157}
		.st15 {fill:#000000;font-family:Calibri;font-size:1.16666em;font-weight:bold}
		.st16 {marker-end:url(#mrkr5-262);stroke:#000000;stroke-linecap:round;stroke-linejoin:round;stroke-width:0.72}
		.st17 {fill:none;fill-rule:evenodd;font-size:12px;overflow:visible;stroke-linecap:square;stroke-miterlimit:3}
	]]>
	</style>

	<defs id="Markers">
		<g id="lend13">
			<path d="M 3 1 L 0 0 L 3 -1 L 3 1 " style="stroke:none"/>
		</g>
		<marker id="mrkr13-6" class="st2" v:arrowType="13" v:arrowSize="2" v:setback="13.5" refX="-13.5" orient="auto"
				markerUnits="strokeWidth" overflow="visible">
			<use xlink:href="#lend13" transform="scale(-4.5,-4.5) "/>
		</marker>
		<g id="lend4">
			<path d="M 2 1 L 0 0 L 2 -1 L 2 1 " style="stroke:none"/>
		</g>
		<marker id="mrkr4-102" class="st14" v:arrowType="4" v:arrowSize="2" v:setback="7.04" refX="-7.0399995968" orient="auto"
				markerUnits="strokeWidth" overflow="visible">
			<use xlink:href="#lend4" transform="scale(-3.5199997984,-3.5199997984) "/>
		</marker>
		<g id="lend5">
			<path d="M 2 1 L 0 0 L 1.98117 -0.993387 C 1.67173 -0.364515 1.67301 0.372641 1.98465 1.00043 " style="stroke:none"/>
		</g>
		<marker id="mrkr5-262" class="st2" v:arrowType="5" v:arrowSize="2" v:setback="7.875" refX="-7.875" orient="auto"
				markerUnits="strokeWidth" overflow="visible">
			<use xlink:href="#lend5" transform="scale(-4.5,-4.5) "/>
		</marker>
	</defs>
	<g v:mID="0" v:index="1" v:groupContext="foregroundPage">
		<title>Canvas 1</title>
		<v:pageProperties v:drawingScale="1" v:pageScale="1" v:drawingUnits="19" v:shadowOffsetX="0" v:shadowOffsetY="-4"/>
		<v:layer v:name="Layer 1" v:index="0"/>
		<v:layer v:name="Connector" v:index="1"/>
		<g id="shape53-1" v:mID="53" v:groupContext="shape" transform="translate(871.52,485.453) rotate(119.932)">
			<title>Sheet.53</title>
			<path d="M0 591.54 L33.12 591.54" class="st1"/>
		</g>
		<g id="shape29-7" v:mID="29" v:groupContext="shape" transform="translate(754.52,486.203) rotate(119.932)">
			<title>Sheet.29</title>
			<path d="M0 591.54 L33.12 591.54" class="st1"/>
		</g>
		<g id="shape2-12" v:mID="2" v:groupContext="shape" transform="translate(350.907,-399.989)">
			<title>Rectangle Fill:White.2</title>
			<desc>VM</desc>
			<v:textBlock v:margins="rect(0,5,0,5)" v:tabSpace="28"/>
			<v:textRect cx="15.525" cy="564.544" width="31.06" height="54"/>
			<g id="shadow2-13" v:groupContext="shadow" v:shadowOffsetX="0" v:shadowOffsetY="0" v:shadowType="1"
					transform="matrix(1,0,0,1,0,0)" class="st3">
				<rect x="0" y="537.544" width="31.05" height="54" class="st4"/>
			</g>
			<rect x="0" y="537.544" width="31.05" height="54" class="st5"/>
			<text x="6.99" y="568.14" class="st6" v:langID="1033"><v:paragraph v:horizAlign="1"/><v:tabList/>VM</text>		</g>
		<g id="shape3-17" v:mID="3" v:groupContext="shape" transform="translate(466.546,-399.989)">
			<title>Rectangle Fill:White.3</title>
			<desc>VM</desc>
			<v:textBlock v:margins="rect(0,5,0,5)" v:tabSpace="28"/>
			<v:textRect cx="15.525" cy="564.544" width="31.06" height="54"/>
			<g id="shadow3-18" v:groupContext="shadow" v:shadowOffsetX="0" v:shadowOffsetY="0" v:shadowType="1"
					transform="matrix(1,0,0,1,0,0)" class="st3">
				<rect x="0" y="537.544" width="31.05" height="54" class="st4"/>
			</g>
			<rect x="0" y="537.544" width="31.05" height="54" class="st5"/>
			<text x="6.99" y="568.14" class="st6" v:langID="1033"><v:paragraph v:horizAlign="1"/><v:tabList/>VM</text>		</g>
		<g id="group4-22" transform="translate(344.985,-104.989)" v:mID="4" v:groupContext="group">
			<title>Group.4</title>
			<g id="shape5-23" v:mID="5" v:groupContext="shape" transform="translate(1.44E-05,1.44E-05)">
				<title>Rectangle Fill:White.5</title>
				<desc>Data Obj</desc>
				<v:textBlock v:margins="rect(0,2,0,2)" v:tabSpace="28"/>
				<v:textRect cx="15.2658" cy="567.282" width="30.54" height="48.5237"/>
				<g id="shadow5-24" v:groupContext="shadow" v:shadowOffsetX="0" v:shadowOffsetY="0" v:shadowType="1"
						transform="matrix(1,0,0,1,0,0)" class="st3">
					<rect x="0" y="543.02" width="30.5316" height="48.5237" class="st4"/>
				</g>
				<rect x="0" y="543.02" width="30.5316" height="48.5237" class="st5"/>
				<text x="3.82" y="563.68" class="st6" v:langID="1033"><v:paragraph v:horizAlign="1"/><v:tabList/>Data<v:newlineChar/><tspan
							x="6.71" dy="1.2em" class="st7">Obj</tspan></text>			</g>
			<g id="shape6-29" v:mID="6" v:groupContext="shape" transform="translate(1.44E-05,-43.2167)">
				<title>Circle Fill:White.6</title>
				<g id="shadow6-30" v:groupContext="shadow" v:shadowOffsetX="0" v:shadowOffsetY="0" v:shadowType="1"
						transform="matrix(1,0,0,1,0,0)" class="st3">
					<path d="M26.02 582.34 C31.97 584.45 31.97 587.86 26.02 589.96 C20.07 592.07 10.42 592.07 4.46 589.96 C-1.49
								 587.86 -1.49 584.45 4.46 582.34 C10.42 580.23 20.07 580.23 26.02 582.34 Z" class="st4"/>
				</g>
				<path d="M26.02 582.34 C31.97 584.45 31.97 587.86 26.02 589.96 C20.07 592.07 10.42 592.07 4.46 589.96 C-1.49 587.86
							 -1.49 584.45 4.46 582.34 C10.42 580.23 20.07 580.23 26.02 582.34 Z" class="st5"/>
			</g>
		</g>
		<g id="group10-33" transform="translate(286.906,-104.989)" v:mID="10" v:groupContext="group">
			<title>Group.10</title>
			<g id="shape11-34" v:mID="11" v:groupContext="shape" transform="translate(1.44E-05,1.44E-05)">
				<title>Rectangle Fill:White.11</title>
				<desc>Data Obj</desc>
				<v:textBlock v:margins="rect(0,2,0,2)" v:tabSpace="28"/>
				<v:textRect cx="15.2658" cy="567.282" width="30.54" height="48.5237"/>
				<g id="shadow11-35" v:groupContext="shadow" v:shadowOffsetX="0" v:shadowOffsetY="0" v:shadowType="1"
						transform="matrix(1,0,0,1,0,0)" class="st3">
					<rect x="0" y="543.02" width="30.5316" height="48.5237" class="st4"/>
				</g>
				<rect x="0" y="543.02" width="30.5316" height="48.5237" class="st5"/>
				<text x="3.82" y="563.68" class="st6" v:langID="1033"><v:paragraph v:horizAlign="1"/><v:tabList/>Data<v:newlineChar/><tspan
							x="6.71" dy="1.2em" class="st7">Obj</tspan></text>			</g>
			<g id="shape12-40" v:mID="12" v:groupContext="shape" transform="translate(1.44E-05,-43.2167)">
				<title>Circle Fill:White.12</title>
				<g id="shadow12-41" v:groupContext="shadow" v:shadowOffsetX="0" v:shadowOffsetY="0" v:shadowType="1"
						transform="matrix(1,0,0,1,0,0)" class="st3">
					<path d="M26.02 582.34 C31.97 584.45 31.97 587.86 26.02 589.96 C20.07 592.07 10.42 592.07 4.46 589.96 C-1.49
								 587.86 -1.49 584.45 4.46 582.34 C10.42 580.23 20.07 580.23 26.02 582.34 Z" class="st4"/>
				</g>
				<path d="M26.02 582.34 C31.97 584.45 31.97 587.86 26.02 589.96 C20.07 592.07 10.42 592.07 4.46 589.96 C-1.49 587.86
							 -1.49 584.45 4.46 582.34 C10.42 580.23 20.07 580.23 26.02 582.34 Z" class="st5"/>
			</g>
		</g>
		<g id="group13-44" transform="translate(403.064,-104.989)" v:mID="13" v:groupContext="group">
			<title>Group.13</title>
			<g id="shape14-45" v:mID="14" v:groupContext="shape" transform="translate(-1.44E-05,1.44E-05)">
				<title>Rectangle Fill:White.14</title>
				<desc>Data Obj</desc>
				<v:textBlock v:margins="rect(0,2,0,2)" v:tabSpace="28"/>
				<v:textRect cx="15.2658" cy="567.282" width="30.54" height="48.5237"/>
				<g id="shadow14-46" v:groupContext="shadow" v:shadowOffsetX="0" v:shadowOffsetY="0" v:shadowType="1"
						transform="matrix(1,0,0,1,0,0)" class="st3">
					<rect x="0" y="543.02" width="30.5316" height="48.5237" class="st4"/>
				</g>
				<rect x="0" y="543.02" width="30.5316" height="48.5237" class="st5"/>
				<text x="3.82" y="563.68" class="st6" v:langID="1033"><v:paragraph v:horizAlign="1"/><v:tabList/>Data<v:newlineChar/><tspan
							x="6.71" dy="1.2em" class="st7">Obj</tspan></text>			</g>
			<g id="shape15-51" v:mID="15" v:groupContext="shape" transform="translate(-1.44E-05,-43.2167)">
				<title>Circle Fill:White.15</title>
				<g id="shadow15-52" v:groupContext="shadow" v:shadowOffsetX="0" v:shadowOffsetY="0" v:shadowType="1"
						transform="matrix(1,0,0,1,0,0)" class="st3">
					<path d="M26.02 582.34 C31.97 584.45 31.97 587.86 26.02 589.96 C20.07 592.07 10.42 592.07 4.46 589.96 C-1.49
								 587.86 -1.49 584.45 4.46 582.34 C10.42 580.23 20.07 580.23 26.02 582.34 Z" class="st4"/>
				</g>
				<path d="M26.02 582.34 C31.97 584.45 31.97 587.86 26.02 589.96 C20.07 592.07 10.42 592.07 4.46 589.96 C-1.49 587.86
							 -1.49 584.45 4.46 582.34 C10.42 580.23 20.07 580.23 26.02 582.34 Z" class="st5"/>
			</g>
		</g>
		<g id="group16-55" transform="translate(461.142,-104.989)" v:mID="16" v:groupContext="group">
			<title>Group.16</title>
			<g id="shape17-56" v:mID="17" v:groupContext="shape" transform="translate(-1.44E-05,1.44E-05)">
				<title>Rectangle Fill:White.17</title>
				<desc>Data Obj</desc>
				<v:textBlock v:margins="rect(0,2,0,2)" v:tabSpace="28"/>
				<v:textRect cx="15.2658" cy="567.282" width="30.54" height="48.5237"/>
				<g id="shadow17-57" v:groupContext="shadow" v:shadowOffsetX="0" v:shadowOffsetY="0" v:shadowType="1"
						transform="matrix(1,0,0,1,0,0)" class="st3">
					<rect x="0" y="543.02" width="30.5316" height="48.5237" class="st4"/>
				</g>
				<rect x="0" y="543.02" width="30.5316" height="48.5237" class="st5"/>
				<text x="3.82" y="563.68" class="st6" v:langID="1033"><v:paragraph v:horizAlign="1"/><v:tabList/>Data<v:newlineChar/><tspan
							x="6.71" dy="1.2em" class="st7">Obj</tspan></text>			</g>
			<g id="shape18-62" v:mID="18" v:groupContext="shape" transform="translate(-1.44E-05,-43.2167)">
				<title>Circle Fill:White.18</title>
				<g id="shadow18-63" v:groupContext="shadow" v:shadowOffsetX="0" v:shadowOffsetY="0" v:shadowType="1"
						transform="matrix(1,0,0,1,0,0)" class="st3">
					<path d="M26.02 582.34 C31.97 584.45 31.97 587.86 26.02 589.96 C20.07 592.07 10.42 592.07 4.46 589.96 C-1.49
								 587.86 -1.49 584.45 4.46 582.34 C10.42 580.23 20.07 580.23 26.02 582.34 Z" class="st4"/>
				</g>
				<path d="M26.02 582.34 C31.97 584.45 31.97 587.86 26.02 589.96 C20.07 592.07 10.42 592.07 4.46 589.96 C-1.49 587.86
							 -1.49 584.45 4.46 582.34 C10.42 580.23 20.07 580.23 26.02 582.34 Z" class="st5"/>
			</g>
		</g>
		<g id="shape20-66" v:mID="20" v:groupContext="shape" transform="translate(189.75,-473.912)">
			<title>visioImport-1.1.20</title>
			<desc>Compute Resources</desc>
			<v:textBlock v:margins="rect(0,5,0,5)" v:tabSpace="28"/>
			<v:textRect cx="163.209" cy="559.505" width="326.42" height="64.077"/>
			<path d="M31.36 563.1 C-26.1 559.51 -3.18 529.25 88.47 534.41 C96.97 524.35 203.56 525.99 202.86 534.41 C269.69 523.63
						 355.1 545.13 297.81 555.91 C366.55 561.14 296.94 589.3 240.53 584.6 C236.01 592.44 135.16 595.18 126.31
						 584.6 C69.2 595.9 -49.88 578.52 31.36 563.1 Z" class="st8"/>
			<text x="114.53" y="563.11" class="st6" v:langID="1033"><v:paragraph v:horizAlign="1"/><v:tabList/>Compute Resources</text>		</g>
		<g id="group21-69" transform="translate(207.75,-309.989)" v:mID="21" v:groupContext="group">
			<title>Group.21</title>
			<g id="shape22-70" v:mID="22" v:groupContext="shape" transform="translate(0,-1.44E-05)">
				<title>Rectangle Fill:White.22</title>
				<desc>iSCSI</desc>
				<v:textBlock v:margins="rect(0,2,0,2)" v:tabSpace="28"/>
				<v:textRect cx="15.2658" cy="567.282" width="30.54" height="48.5237"/>
				<g id="shadow22-71" v:groupContext="shadow" v:shadowOffsetX="0" v:shadowOffsetY="0" v:shadowType="1"
						transform="matrix(1,0,0,1,0,1.13687E-13)" class="st3">
					<path d="M0 543.02 L30.53 543.02 L30.53 591.54 L0 591.54 L0 543.02 Z" class="st9"/>
				</g>
				<path d="M0 543.02 L30.53 543.02 L30.53 591.54 L0 591.54 L0 543.02 Z" class="st10"/>
				<text x="5.6" y="570.28" class="st11" v:langID="1033"><v:paragraph v:horizAlign="1"/><v:tabList/>iSCSI</text>			</g>
			<g id="shape23-75" v:mID="23" v:groupContext="shape" transform="translate(0,-43.2167)">
				<title>Circle Fill:White.23</title>
				<g id="shadow23-76" v:groupContext="shadow" v:shadowOffsetX="0" v:shadowOffsetY="0" v:shadowType="1"
						transform="matrix(1,0,0,1,0,2.27374E-13)" class="st3">
					<path d="M26.02 582.34 C31.97 584.45 31.97 587.86 26.02 589.96 C20.07 592.07 10.42 592.07 4.46 589.96 C-1.49
								 587.86 -1.49 584.45 4.46 582.34 C10.42 580.23 20.07 580.23 26.02 582.34 Z" class="st9"/>
				</g>
				<path d="M26.02 582.34 C31.97 584.45 31.97 587.86 26.02 589.96 C20.07 592.07 10.42 592.07 4.46 589.96 C-1.49 587.86
							 -1.49 584.45 4.46 582.34 C10.42 580.23 20.07 580.23 26.02 582.34 Z" class="st10"/>
			</g>
		</g>
		<g id="group24-79" transform="translate(261.75,-309.989)" v:mID="24" v:groupContext="group">
			<title>Group.24</title>
			<g id="shape25-80" v:mID="25" v:groupContext="shape" transform="translate(1.44E-05,-1.44E-05)">
				<title>Rectangle Fill:White.25</title>
				<desc>NFS</desc>
				<v:textBlock v:margins="rect(0,2,0,2)" v:tabSpace="28"/>
				<v:textRect cx="15.2658" cy="567.282" width="30.54" height="48.5237"/>
				<g id="shadow25-81" v:groupContext="shadow" v:shadowOffsetX="0" v:shadowOffsetY="0" v:shadowType="1"
						transform="matrix(1,0,0,1,0,1.13687E-13)" class="st3">
					<path d="M0 543.02 L30.53 543.02 L30.53 591.54 L0 591.54 L0 543.02 Z" class="st9"/>
				</g>
				<path d="M0 543.02 L30.53 543.02 L30.53 591.54 L0 591.54 L0 543.02 Z" class="st10"/>
				<text x="7.44" y="570.28" class="st11" v:langID="1033"><v:paragraph v:horizAlign="1"/><v:tabList/>NFS</text>			</g>
			<g id="shape26-85" v:mID="26" v:groupContext="shape" transform="translate(1.44E-05,-43.2167)">
				<title>Circle Fill:White.26</title>
				<g id="shadow26-86" v:groupContext="shadow" v:shadowOffsetX="0" v:shadowOffsetY="0" v:shadowType="1"
						transform="matrix(1,0,0,1,0,2.27374E-13)" class="st3">
					<path d="M26.02 582.34 C31.97 584.45 31.97 587.86 26.02 589.96 C20.07 592.07 10.42 592.07 4.46 589.96 C-1.49
								 587.86 -1.49 584.45 4.46 582.34 C10.42 580.23 20.07 580.23 26.02 582.34 Z" class="st9"/>
				</g>
				<path d="M26.02 582.34 C31.97 584.45 31.97 587.86 26.02 589.96 C20.07 592.07 10.42 592.07 4.46 589.96 C-1.49 587.86
							 -1.49 584.45 4.46 582.34 C10.42 580.23 20.07 580.23 26.02 582.34 Z" class="st10"/>
			</g>
		</g>
		<g id="shape27-89" v:mID="27" v:groupContext="shape" transform="translate(25.7684,-333.489)">
			<title>Rectangle.27</title>
			<desc>OCCI API</desc>
			<v:textBlock v:margins="rect(0,0,0,0)" v:tabSpace="28"/>
			<v:textRect cx="15.025" cy="577.544" width="30.06" height="28"/>
			<rect x="0" y="563.544" width="30.05" height="28" class="st12"/>
			<text x="3.14" y="573.94" class="st6" v:langID="1033"><v:paragraph v:horizAlign="1"/><v:tabList/>OCCI<v:newlineChar/><tspan
						x="6.94" dy="1.2em" class="st7">API</tspan></text>		</g>
		<g id="shape28-93" v:mID="28" v:groupContext="shape" transform="translate(25.7684,-192.489)">
			<title>Rectangle.28</title>
			<desc>CDMI API</desc>
			<v:textBlock v:margins="rect(0,0,0,0)" v:tabSpace="28"/>
			<v:textRect cx="15.525" cy="577.544" width="31.06" height="28"/>
			<rect x="0" y="563.544" width="31.05" height="28" class="st12"/>
			<text x="1.99" y="573.94" class="st6" v:langID="1033"><v:paragraph v:horizAlign="1"/><v:tabList/>CDMI<v:newlineChar/><tspan
						x="7.44" dy="1.2em" class="st7">API</tspan></text>		</g>
		<g id="shape36-97" v:mID="36" v:groupContext="shape" transform="translate(240.757,-477.875)">
			<title>Line Stroke:Black.36</title>
			<path d="M9 591.54 L9 608.39" class="st13"/>
		</g>
		<g id="shape1-103" v:mID="1" v:groupContext="shape" transform="translate(234.232,-399.989)">
			<title>Rectangle Fill:White.1</title>
			<desc>VM</desc>
			<v:textBlock v:margins="rect(0,5,0,5)" v:tabSpace="28"/>
			<v:textRect cx="15.525" cy="564.544" width="31.06" height="54"/>
			<g id="shadow1-104" v:groupContext="shadow" v:shadowOffsetX="0" v:shadowOffsetY="0" v:shadowType="1"
					transform="matrix(1,0,0,1,0,0)" class="st3">
				<rect x="0" y="537.544" width="31.05" height="54" class="st4"/>
			</g>
			<rect x="0" y="537.544" width="31.05" height="54" class="st5"/>
			<text x="6.99" y="568.14" class="st6" v:langID="1033"><v:paragraph v:horizAlign="1"/><v:tabList/>VM</text>		</g>
		<g id="shape37-108" v:mID="37" v:groupContext="shape" transform="translate(356.625,-472.5)">
			<title>Line Stroke:Black.37</title>
			<path d="M9 591.54 L9 603.02" class="st13"/>
		</g>
		<g id="shape38-113" v:mID="38" v:groupContext="shape" transform="translate(472.5,-482.625)">
			<title>Line Stroke:Black.38</title>
			<path d="M9 591.54 L9 613.14" class="st13"/>
		</g>
		<g id="shape42-118" v:mID="42" v:groupContext="shape" transform="translate(-259.77,127.871) rotate(-58.8298)">
			<title>Sheet.42</title>
			<path d="M0 591.54 L11.89 591.54" class="st1"/>
		</g>
		<g id="group7-123" transform="translate(228.828,-104.989)" v:mID="7" v:groupContext="group">
			<title>Group.7</title>
			<g id="shape8-124" v:mID="8" v:groupContext="shape" transform="translate(0,1.44E-05)">
				<title>Rectangle Fill:White.8</title>
				<desc>Data Obj</desc>
				<v:textBlock v:margins="rect(0,2,0,2)" v:tabSpace="28"/>
				<v:textRect cx="15.2658" cy="567.282" width="30.54" height="48.5237"/>
				<g id="shadow8-125" v:groupContext="shadow" v:shadowOffsetX="0" v:shadowOffsetY="0" v:shadowType="1"
						transform="matrix(1,0,0,1,0,0)" class="st3">
					<rect x="0" y="543.02" width="30.5316" height="48.5237" class="st4"/>
				</g>
				<rect x="0" y="543.02" width="30.5316" height="48.5237" class="st5"/>
				<text x="3.82" y="563.68" class="st6" v:langID="1033"><v:paragraph v:horizAlign="1"/><v:tabList/>Data<v:newlineChar/><tspan
							x="6.71" dy="1.2em" class="st7">Obj</tspan></text>			</g>
			<g id="shape9-130" v:mID="9" v:groupContext="shape" transform="translate(0,-43.2167)">
				<title>Circle Fill:White.9</title>
				<g id="shadow9-131" v:groupContext="shadow" v:shadowOffsetX="0" v:shadowOffsetY="0" v:shadowType="1"
						transform="matrix(1,0,0,1,0,0)" class="st3">
					<path d="M26.02 582.34 C31.97 584.45 31.97 587.86 26.02 589.96 C20.07 592.07 10.42 592.07 4.46 589.96 C-1.49
								 587.86 -1.49 584.45 4.46 582.34 C10.42 580.23 20.07 580.23 26.02 582.34 Z" class="st4"/>
				</g>
				<path d="M26.02 582.34 C31.97 584.45 31.97 587.86 26.02 589.96 C20.07 592.07 10.42 592.07 4.46 589.96 C-1.49 587.86
							 -1.49 584.45 4.46 582.34 C10.42 580.23 20.07 580.23 26.02 582.34 Z" class="st5"/>
			</g>
		</g>
		<g id="shape39-134" v:mID="39" v:groupContext="shape" transform="translate(257.559,-175.989)">
			<title>Rectangle.39</title>
			<desc>iSCSI</desc>
			<v:textBlock v:margins="rect(0,0,0,0)" v:tabSpace="28"/>
			<v:textRect cx="15.525" cy="584.544" width="31.06" height="14"/>
			<rect x="0" y="577.544" width="31.05" height="14" class="st12"/>
			<text x="3.92" y="588.14" class="st6" v:langID="1033"><v:paragraph v:horizAlign="1"/><v:tabList/>iSCSI</text>		</g>
		<g id="shape40-137" v:mID="40" v:groupContext="shape" transform="translate(374.828,-175.989)">
			<title>Rectangle.40</title>
			<desc>NFS</desc>
			<v:textBlock v:margins="rect(0,0,0,0)" v:tabSpace="28"/>
			<v:textRect cx="12.025" cy="584.544" width="24.05" height="14"/>
			<rect x="0" y="577.544" width="24.05" height="14" class="st12"/>
			<text x="2.64" y="588.14" class="st6" v:langID="1033"><v:paragraph v:horizAlign="1"/><v:tabList/>NFS</text>		</g>
		<g id="shape41-140" v:mID="41" v:groupContext="shape" transform="translate(444.167,-175.989)">
			<title>Rectangle.41</title>
			<desc>WebDAV</desc>
			<v:textBlock v:margins="rect(0,0,0,0)" v:tabSpace="28"/>
			<v:textRect cx="31.0108" cy="584.544" width="62.03" height="14"/>
			<rect x="0" y="577.544" width="62.0216" height="14" class="st12"/>
			<text x="8.97" y="588.14" class="st6" v:langID="1033"><v:paragraph v:horizAlign="1"/><v:tabList/>WebDAV</text>		</g>
		<g id="shape46-143" v:mID="46" v:groupContext="shape" transform="translate(467.383,-158.489)">
			<title>Line Stroke:Black.46</title>
			<path d="M9 591.04 L9 581.08" class="st13"/>
		</g>
		<g id="group47-148" transform="translate(324.167,-309.989)" v:mID="47" v:groupContext="group">
			<title>Group.47</title>
			<g id="shape48-149" v:mID="48" v:groupContext="shape" transform="translate(1.44E-05,-1.44E-05)">
				<title>Rectangle Fill:White.48</title>
				<desc>NFS</desc>
				<v:textBlock v:margins="rect(0,2,0,2)" v:tabSpace="28"/>
				<v:textRect cx="15.2658" cy="567.282" width="30.54" height="48.5237"/>
				<g id="shadow48-150" v:groupContext="shadow" v:shadowOffsetX="0" v:shadowOffsetY="0" v:shadowType="1"
						transform="matrix(1,0,0,1,0,1.13687E-13)" class="st3">
					<path d="M0 543.02 L30.53 543.02 L30.53 591.54 L0 591.54 L0 543.02 Z" class="st9"/>
				</g>
				<path d="M0 543.02 L30.53 543.02 L30.53 591.54 L0 591.54 L0 543.02 Z" class="st10"/>
				<text x="7.44" y="570.28" class="st11" v:langID="1033"><v:paragraph v:horizAlign="1"/><v:tabList/>NFS</text>			</g>
			<g id="shape49-154" v:mID="49" v:groupContext="shape" transform="translate(1.44E-05,-43.2167)">
				<title>Circle Fill:White.49</title>
				<g id="shadow49-155" v:groupContext="shadow" v:shadowOffsetX="0" v:shadowOffsetY="0" v:shadowType="1"
						transform="matrix(1,0,0,1,0,2.27374E-13)" class="st3">
					<path d="M26.02 582.34 C31.97 584.45 31.97 587.86 26.02 589.96 C20.07 592.07 10.42 592.07 4.46 589.96 C-1.49
								 587.86 -1.49 584.45 4.46 582.34 C10.42 580.23 20.07 580.23 26.02 582.34 Z" class="st9"/>
				</g>
				<path d="M26.02 582.34 C31.97 584.45 31.97 587.86 26.02 589.96 C20.07 592.07 10.42 592.07 4.46 589.96 C-1.49 587.86
							 -1.49 584.45 4.46 582.34 C10.42 580.23 20.07 580.23 26.02 582.34 Z" class="st10"/>
			</g>
		</g>
		<g id="group50-158" transform="translate(378.167,-309.989)" v:mID="50" v:groupContext="group">
			<title>Group.50</title>
			<g id="shape51-159" v:mID="51" v:groupContext="shape" transform="translate(1.44E-05,-1.44E-05)">
				<title>Rectangle Fill:White.51</title>
				<desc>NFS</desc>
				<v:textBlock v:margins="rect(0,2,0,2)" v:tabSpace="28"/>
				<v:textRect cx="15.2658" cy="567.282" width="30.54" height="48.5237"/>
				<g id="shadow51-160" v:groupContext="shadow" v:shadowOffsetX="0" v:shadowOffsetY="0" v:shadowType="1"
						transform="matrix(1,0,0,1,0,1.13687E-13)" class="st3">
					<path d="M0 543.02 L30.53 543.02 L30.53 591.54 L0 591.54 L0 543.02 Z" class="st9"/>
				</g>
				<path d="M0 543.02 L30.53 543.02 L30.53 591.54 L0 591.54 L0 543.02 Z" class="st10"/>
				<text x="7.44" y="570.28" class="st11" v:langID="1033"><v:paragraph v:horizAlign="1"/><v:tabList/>NFS</text>			</g>
			<g id="shape52-164" v:mID="52" v:groupContext="shape" transform="translate(1.44E-05,-43.2167)">
				<title>Circle Fill:White.52</title>
				<g id="shadow52-165" v:groupContext="shadow" v:shadowOffsetX="0" v:shadowOffsetY="0" v:shadowType="1"
						transform="matrix(1,0,0,1,0,2.27374E-13)" class="st3">
					<path d="M26.02 582.34 C31.97 584.45 31.97 587.86 26.02 589.96 C20.07 592.07 10.42 592.07 4.46 589.96 C-1.49
								 587.86 -1.49 584.45 4.46 582.34 C10.42 580.23 20.07 580.23 26.02 582.34 Z" class="st9"/>
				</g>
				<path d="M26.02 582.34 C31.97 584.45 31.97 587.86 26.02 589.96 C20.07 592.07 10.42 592.07 4.46 589.96 C-1.49 587.86
							 -1.49 584.45 4.46 582.34 C10.42 580.23 20.07 580.23 26.02 582.34 Z" class="st10"/>
			</g>
		</g>
		<g id="shape55-168" v:mID="55" v:groupContext="shape" transform="translate(6.5,-272.989)">
			<title>Rectangle.55</title>
			<desc>Client</desc>
			<v:textBlock v:margins="rect(0,0,0,0)" v:tabSpace="28"/>
			<v:textRect cx="16.025" cy="584.544" width="32.05" height="14"/>
			<rect x="0" y="577.544" width="32.05" height="14" class="st12"/>
			<text x="0" y="588.14" class="st6" v:langID="1033"><v:paragraph/><v:tabList/>Client</text>		</g>
		<g id="shape57-171" v:mID="57" v:groupContext="shape" transform="translate(22.9375,-271.239)">
			<title>Line Stroke:Black.57</title>
			<path d="M0.56 591.54 L0.56 621.54 L17.44 621.54 L17.44 632.5" class="st13"/>
		</g>
		<g id="group58-176" transform="translate(440.583,-310.453)" v:mID="58" v:groupContext="group">
			<title>Group.58</title>
			<g id="shape59-177" v:mID="59" v:groupContext="shape" transform="translate(1.44E-05,-1.44E-05)">
				<title>Rectangle Fill:White.59</title>
				<desc>iSCSI</desc>
				<v:textBlock v:margins="rect(0,2,0,2)" v:tabSpace="28"/>
				<v:textRect cx="15.2658" cy="567.282" width="30.54" height="48.5237"/>
				<g id="shadow59-178" v:groupContext="shadow" v:shadowOffsetX="0" v:shadowOffsetY="0" v:shadowType="1"
						transform="matrix(1,0,0,1,0,2.27374E-13)" class="st3">
					<path d="M0 543.02 L30.53 543.02 L30.53 591.54 L0 591.54 L0 543.02 Z" class="st9"/>
				</g>
				<path d="M0 543.02 L30.53 543.02 L30.53 591.54 L0 591.54 L0 543.02 Z" class="st10"/>
				<text x="5.6" y="570.28" class="st11" v:langID="1033"><v:paragraph v:horizAlign="1"/><v:tabList/>iSCSI</text>			</g>
			<g id="shape60-182" v:mID="60" v:groupContext="shape" transform="translate(1.44E-05,-43.2167)">
				<title>Circle Fill:White.60</title>
				<g id="shadow60-183" v:groupContext="shadow" v:shadowOffsetX="0" v:shadowOffsetY="0" v:shadowType="1"
						transform="matrix(1,0,0,1,0,1.13687E-13)" class="st3">
					<path d="M26.02 582.34 C31.97 584.45 31.97 587.86 26.02 589.96 C20.07 592.07 10.42 592.07 4.46 589.96 C-1.49
								 587.86 -1.49 584.45 4.46 582.34 C10.42 580.23 20.07 580.23 26.02 582.34 Z" class="st9"/>
				</g>
				<path d="M26.02 582.34 C31.97 584.45 31.97 587.86 26.02 589.96 C20.07 592.07 10.42 592.07 4.46 589.96 C-1.49 587.86
							 -1.49 584.45 4.46 582.34 C10.42 580.23 20.07 580.23 26.02 582.34 Z" class="st10"/>
			</g>
		</g>
		<g id="group61-186" transform="translate(494.583,-310.453)" v:mID="61" v:groupContext="group">
			<title>Group.61</title>
			<g id="shape62-187" v:mID="62" v:groupContext="shape" transform="translate(1.44E-05,-1.44E-05)">
				<title>Rectangle Fill:White.62</title>
				<desc>Web DAV</desc>
				<v:textBlock v:margins="rect(0,2,0,2)" v:tabSpace="28"/>
				<v:textRect cx="15.2658" cy="567.282" width="30.54" height="48.5237"/>
				<g id="shadow62-188" v:groupContext="shadow" v:shadowOffsetX="0" v:shadowOffsetY="0" v:shadowType="1"
						transform="matrix(1,0,0,1,-5.68434E-14,2.27374E-13)" class="st3">
					<path d="M0 543.02 L30.53 543.02 L30.53 591.54 L0 591.54 L0 543.02 Z" class="st9"/>
				</g>
				<path d="M0 543.02 L30.53 543.02 L30.53 591.54 L0 591.54 L0 543.02 Z" class="st10"/>
				<text x="5.7" y="564.28" class="st11" v:langID="1033"><v:paragraph v:horizAlign="1"/><v:tabList/>Web<v:newlineChar/><tspan
							x="6.46" dy="1.2em" class="st7">DAV</tspan></text>			</g>
			<g id="shape63-193" v:mID="63" v:groupContext="shape" transform="translate(1.44E-05,-43.2167)">
				<title>Circle Fill:White.63</title>
				<g id="shadow63-194" v:groupContext="shadow" v:shadowOffsetX="0" v:shadowOffsetY="0" v:shadowType="1"
						transform="matrix(1,0,0,1,-5.68434E-14,1.13687E-13)" class="st3">
					<path d="M26.02 582.34 C31.97 584.45 31.97 587.86 26.02 589.96 C20.07 592.07 10.42 592.07 4.46 589.96 C-1.49
								 587.86 -1.49 584.45 4.46 582.34 C10.42 580.23 20.07 580.23 26.02 582.34 Z" class="st9"/>
				</g>
				<path d="M26.02 582.34 C31.97 584.45 31.97 587.86 26.02 589.96 C20.07 592.07 10.42 592.07 4.46 589.96 C-1.49 587.86
							 -1.49 584.45 4.46 582.34 C10.42 580.23 20.07 580.23 26.02 582.34 Z" class="st10"/>
			</g>
		</g>
		<g id="shape66-197" v:mID="66" v:groupContext="shape" transform="translate(121.75,-396.489)">
			<title>visioImport-1.1.66</title>
			<desc>Virtual Machine Manager</desc>
			<v:textBlock v:margins="rect(0,5,0,5)" v:tabSpace="28"/>
			<v:textRect cx="37.1937" cy="563.527" width="74.39" height="56.0328"/>
			<path d="M7.15 566.67 C-5.95 563.53 -0.73 537.07 20.16 541.59 C22.1 532.79 46.39 534.22 46.23 541.59 C61.46 532.16 80.92
						 550.96 67.87 560.38 C83.53 564.96 67.67 589.58 54.81 585.47 C53.79 592.32 30.8 594.72 28.78 585.47 C15.77
						 595.35 -11.37 580.15 7.15 566.67 Z" class="st8"/>
			<text x="20.91" y="552.73" class="st6" v:langID="1033"><v:paragraph v:horizAlign="1"/><v:tabList/>Virtual<v:newlineChar/><tspan
						x="15.99" dy="1.2em" class="st7">Machine<v:newlineChar/></tspan><tspan x="15.26" dy="1.2em" class="st7">Manager</tspan></text>		</g>
		<g id="shape68-202" v:mID="68" v:groupContext="shape" transform="translate(116.41,-78.4887)">
			<title>visioImport-1.1.68</title>
			<desc>CDMI Exports</desc>
			<v:textBlock v:margins="rect(0,5,0,5)" v:tabSpace="28"/>
			<v:textRect cx="42.5333" cy="559.505" width="85.07" height="64.077"/>
			<path d="M8.17 563.1 C-6.8 559.51 -0.83 529.25 23.06 534.41 C25.27 524.35 53.05 525.99 52.87 534.41 C70.28 523.63 92.54
						 545.13 77.61 555.91 C95.53 561.14 77.39 589.3 62.68 584.6 C61.51 592.44 35.22 595.18 32.92 584.6 C18.03
						 595.9 -13 578.52 8.17 563.1 Z" class="st8"/>
			<text x="29" y="555.91" class="st6" v:langID="1033"><v:paragraph v:horizAlign="1"/><v:tabList/>CDMI<v:newlineChar/><tspan
						x="24.24" dy="1.2em" class="st7">Exports</tspan></text>		</g>
		<g id="shape69-206" v:mID="69" v:groupContext="shape" transform="translate(160.73,-182.739)">
			<title>Line Stroke:Black.69</title>
			<path d="M-9 591.54 L-9 624.78" class="st13"/>
		</g>
		<g id="shape70-211" v:mID="70" v:groupContext="shape" transform="translate(1,-558.489)">
			<title>Rectangle.70</title>
			<desc>OCCI &#60;&#62; CDMI Interface</desc>
			<v:textBlock v:margins="rect(0,0,0,0)" v:tabSpace="28"/>
			<v:textRect cx="288.563" cy="575.516" width="577.13" height="32.0551"/>
			<rect x="0" y="559.489" width="577.125" height="32.0551" class="st12"/>
			<text x="220.55" y="579.72" class="st15" v:langID="1033"><v:paragraph v:horizAlign="1"/><v:tabList/>OCCI &#60;&#62; CDMI Interface</text>		</g>
		<g id="shape71-214" v:mID="71" v:groupContext="shape" transform="translate(62.5,-182.739)">
			<title>Rectangle Fill:White.71</title>
			<desc>Cloud Computing Infrastructure</desc>
			<v:textBlock v:margins="rect(0,5,0,5)" v:tabSpace="28"/>
			<v:textRect cx="62.275" cy="498.437" width="124.56" height="186.213"/>
			<g id="shadow71-215" v:groupContext="shadow" v:shadowOffsetX="0" v:shadowOffsetY="0" v:shadowType="1"
					transform="matrix(1,0,0,1,0,0)" class="st3">
				<rect x="0" y="405.331" width="124.55" height="186.213" class="st4"/>
			</g>
			<rect x="0" y="405.331" width="124.55" height="186.213" class="st5"/>
			<text x="20.05" y="487.64" class="st6" v:langID="1033"><v:paragraph v:horizAlign="1"/><v:tabList/>Cloud Computing <v:newlineChar/><tspan
						x="28.44" dy="1.2em" class="st7">Infrastructure</tspan><v:newlineChar/></text>		</g>
		<g id="shape72-220" v:mID="72" v:groupContext="shape" transform="translate(62.9289,-241.489)">
			<title>Rectangle.72</title>
			<desc>[OCCI_VMID] [CDMI_ObjectID]</desc>
			<v:textBlock v:margins="rect(0,0,0,0)" v:tabSpace="28"/>
			<v:textRect cx="60.723" cy="577.544" width="121.45" height="28"/>
			<rect x="0" y="563.544" width="121.446" height="28" class="st12"/>
			<text x="33.82" y="574.54" class="st11" v:langID="1033"><v:paragraph v:horizAlign="1"/><v:tabList/>[OCCI_VMID]<v:newlineChar/><tspan
						x="26.14" dy="1.2em" class="st7">[</tspan>CDMI_ObjectID]</text>		</g>
		<g id="shape73-224" v:mID="73" v:groupContext="shape" transform="translate(62.5,-192.489)">
			<title>Rectangle Fill:White.73</title>
			<desc>CDMI</desc>
			<v:textBlock v:margins="rect(0,5,0,5)" v:tabSpace="28"/>
			<v:textRect cx="23.4892" cy="577.544" width="46.98" height="28"/>
			<g id="shadow73-225" v:groupContext="shadow" v:shadowOffsetX="0" v:shadowOffsetY="0" v:shadowType="1"
					transform="matrix(1,0,0,1,0,0)" class="st3">
				<rect x="0" y="563.544" width="46.9785" height="28" class="st4"/>
			</g>
			<rect x="0" y="563.544" width="46.9785" height="28" class="st5"/>
			<text x="5" y="581.14" class="st6" v:langID="1033"><v:paragraph/><v:tabList/>CDMI  </text>		</g>
		<g id="shape74-229" v:mID="74" v:groupContext="shape" transform="translate(62.5,-333.489)">
			<title>Rectangle Fill:White.74</title>
			<desc>OCCI</desc>
			<v:textBlock v:margins="rect(0,5,0,5)" v:tabSpace="28"/>
			<v:textRect cx="20.025" cy="577.544" width="40.06" height="28"/>
			<g id="shadow74-230" v:groupContext="shadow" v:shadowOffsetX="0" v:shadowOffsetY="0" v:shadowType="1"
					transform="matrix(1,0,0,1,0,0)" class="st3">
				<rect x="0" y="563.544" width="40.05" height="28" class="st4"/>
			</g>
			<rect x="0" y="563.544" width="40.05" height="28" class="st5"/>
			<text x="5" y="581.14" class="st6" v:langID="1033"><v:paragraph/><v:tabList/>OCCI</text>		</g>
		<g id="shape75-234" v:mID="75" v:groupContext="shape" transform="translate(209.973,-206.989)">
			<title>visioImport-1.1.75</title>
			<desc>Private, Hidden Storage Network for the Cloud</desc>
			<v:textBlock v:margins="rect(0,5,0,5)" v:tabSpace="28"/>
			<v:textRect cx="163.209" cy="557.044" width="326.42" height="69"/>
			<path d="M31.36 560.91 C-26.1 557.04 -3.18 524.47 88.47 530.03 C96.97 519.19 203.56 520.95 202.86 530.03 C269.69 518.42
						 355.1 541.56 297.81 553.17 C366.55 558.8 296.94 589.13 240.53 584.06 C236.01 592.51 135.16 595.46 126.31
						 584.06 C69.2 596.24 -49.88 577.52 31.36 560.91 Z" class="st8"/>
			<text x="32.13" y="560.64" class="st6" v:langID="1033"><v:paragraph/><v:tabList/>Private, Hidden Storage Network for the Cloud</text>		</g>
		<g id="shape76-237" v:mID="76" v:groupContext="shape" transform="translate(187.05,-232.239)">
			<title>Line Stroke:Black.76</title>
			<path d="M0 582.54 L16.16 582.54" class="st13"/>
		</g>
		<g id="shape56-242" v:mID="56" v:groupContext="shape" transform="translate(23.125,-288.489)">
			<title>Line Stroke:Black.56</title>
			<path d="M0.38 591.54 L0.38 563.04 L17.63 563.04 L17.63 551.33" class="st13"/>
		</g>
		<g id="shape30-247" v:mID="30" v:groupContext="shape" transform="translate(785.593,-73.5027) rotate(63.4349)">
			<title>Sheet.30</title>
			<path d="M0 591.54 L30.53 591.54" class="st1"/>
		</g>
		<g id="shape54-252" v:mID="54" v:groupContext="shape" transform="translate(902.593,-72.0027) rotate(63.4349)">
			<title>Sheet.54</title>
			<path d="M0 591.54 L30.53 591.54" class="st1"/>
		</g>
		<g id="shape31-257" v:mID="31" v:groupContext="shape" transform="translate(-350.794,527.044) rotate(-90)">
			<title>Sheet.31</title>
			<path d="M0 591.54 L33.33 591.54" class="st16"/>
		</g>
		<g id="shape32-263" v:mID="32" v:groupContext="shape" transform="translate(-290.044,522.169) rotate(-90)">
			<title>Sheet.32</title>
			<path d="M0 591.54 L28.45 591.54" class="st16"/>
		</g>
		<g id="shape33-268" v:mID="33" v:groupContext="shape" transform="translate(-227.044,522.169) rotate(-90)">
			<title>Sheet.33</title>
			<path d="M0 591.54 L28.45 591.54" class="st16"/>
		</g>
		<g id="shape34-273" v:mID="34" v:groupContext="shape" transform="translate(-168.544,524.794) rotate(-90)">
			<title>Sheet.34</title>
			<path d="M0 591.54 L31.08 591.54" class="st16"/>
		</g>
		<g id="shape35-278" v:mID="35" v:groupContext="shape" transform="translate(-108.919,529.669) rotate(-90)">
			<title>Sheet.35</title>
			<path d="M0 591.54 L35.95 591.54" class="st16"/>
		</g>
		<g id="shape64-283" v:mID="64" v:groupContext="shape" transform="translate(1003.84,456.715) rotate(116.565)">
			<title>Sheet.64</title>
			<path d="M0 591.54 L30.53 591.54" class="st1"/>
		</g>
		<g id="shape65-288" v:mID="65" v:groupContext="shape" transform="translate(1003.83,-97.8422) rotate(60.6422)">
			<title>Sheet.65</title>
			<path d="M0 591.54 L31.58 591.54" class="st1"/>
		</g>
		<g id="shape43-293" v:mID="43" v:groupContext="shape" transform="translate(-189.328,764.754) rotate(-124.123)">
			<title>Sheet.43</title>
			<path d="M0 591.54 L11.25 591.54" class="st1"/>
		</g>
		<g id="shape44-298" v:mID="44" v:groupContext="shape" transform="translate(-114.119,81.8127) rotate(-53.4557)">
			<title>Sheet.44</title>
			<path d="M0 591.54 L13.29 591.54" class="st1"/>
		</g>
		<g id="shape45-303" v:mID="45" v:groupContext="shape" transform="translate(-1.93343,851.304) rotate(-135.014)">
			<title>Sheet.45</title>
			<path d="M0 591.54 L14.84 591.54" class="st1"/>
		</g>
		<g id="shape19-308" v:mID="19" v:groupContext="shape" transform="translate(189.75,-0.988914)">
			<title>visioImport-1.1.19</title>
			<desc>Data Storage Resources</desc>
			<v:textBlock v:margins="rect(0,5,0,5)" v:tabSpace="28"/>
			<v:textRect cx="163.209" cy="557.044" width="326.42" height="69"/>
			<path d="M31.36 560.91 C-26.1 557.04 -3.18 524.47 88.47 530.03 C96.97 519.19 203.56 520.95 202.86 530.03 C269.69 518.42
						 355.1 541.56 297.81 553.17 C366.55 558.8 296.94 589.13 240.53 584.06 C236.01 592.51 135.16 595.46 126.31
						 584.06 C69.2 596.24 -49.88 577.52 31.36 560.91 Z" class="st8"/>
			<text x="105.47" y="560.64" class="st6" v:langID="1033"><v:paragraph v:horizAlign="1"/><v:tabList/>Data Storage Resources</text>		</g>
		<g id="shape77-311" v:mID="77" v:groupContext="shape" transform="translate(-429.544,221.419) rotate(-90)">
			<title>Sheet.77</title>
			<path d="M0 591.54 L16.9 591.54" class="st1"/>
		</g>
	</g>
</svg>
