<?xml version="1.0" encoding="UTF-8" standalone="no"?>
<!DOCTYPE svg PUBLIC "-//W3C//DTD SVG 1.1//EN" "http://www.w3.org/Graphics/SVG/1.1/DTD/svg11.dtd">
<!-- Generated by Microsoft Visio, SVG Export HierarchyofCapabilities.svg Page-3 -->
<svg xmlns="http://www.w3.org/2000/svg" xmlns:xlink="http://www.w3.org/1999/xlink" xmlns:ev="http://www.w3.org/2001/xml-events"
		xmlns:v="http://schemas.microsoft.com/visio/2003/SVGExtensions/" width="7.68383in" height="4.73108in"
		viewBox="0 0 553.236 340.637" xml:space="preserve" color-interpolation-filters="sRGB" class="st11">
	<v:documentProperties v:langID="1033" v:viewMarkup="false">
		<v:userDefs>
			<v:ud v:nameU="msvConvertTheme"/>
			<v:ud v:nameU="msvNoAutoConnect" v:val="VT0(1):26"/>
		</v:userDefs>
	</v:documentProperties>

	<style type="text/css">
	<![CDATA[
		.st1 {fill:#ffffff;stroke:none;stroke-linecap:round;stroke-linejoin:round;stroke-width:0.24}
		.st2 {marker-start:url(#mrkr5-8);stroke:#4d4d4d;stroke-linecap:round;stroke-linejoin:round;stroke-width:4.08}
		.st3 {fill:#4d4d4d;fill-opacity:1;stroke:#4d4d4d;stroke-opacity:1;stroke-width:0.61818181818182}
		.st4 {fill:#ffffff;stroke:#000000;stroke-linecap:round;stroke-linejoin:round;stroke-width:0.24}
		.st5 {fill:#000000;font-family:Arial;font-size:0.833336em}
		.st6 {marker-start:url(#mrkr5-35);stroke:#4979c0;stroke-linecap:round;stroke-linejoin:round;stroke-width:2.16}
		.st7 {fill:#4979c0;fill-opacity:1;stroke:#4979c0;stroke-opacity:1;stroke-width:0.46153846153846}
		.st8 {stroke:#4d4d4d;stroke-dasharray:0,12.24;stroke-linecap:round;stroke-linejoin:round;stroke-width:4.08}
		.st9 {fill:#ffffff;stroke:#000000;stroke-linecap:round;stroke-linejoin:round;stroke-width:1.2}
		.st10 {fill:#000000;font-family:Arial;font-size:0.833336em;font-weight:bold}
		.st11 {fill:none;fill-rule:evenodd;font-size:12px;overflow:visible;stroke-linecap:square;stroke-miterlimit:3}
	]]>
	</style>

	<defs id="Markers">
		<g id="lend5">
			<path d="M 2 1 L 0 0 L 1.98117 -0.993387 C 1.67173 -0.364515 1.67301 0.372641 1.98465 1.00043 " style="stroke:none"/>
		</g>
		<marker id="mrkr5-8" class="st3" v:arrowType="5" v:arrowSize="2" v:setback="2.74265" refX="2.7426470588235" orient="auto"
				markerUnits="strokeWidth" overflow="visible">
			<use xlink:href="#lend5" transform="scale(1.6176470588235) "/>
		</marker>
		<marker id="mrkr5-35" class="st7" v:arrowType="5" v:arrowSize="2" v:setback="3.625" refX="3.625" orient="auto"
				markerUnits="strokeWidth" overflow="visible">
			<use xlink:href="#lend5" transform="scale(2.1666666666667) "/>
		</marker>
	</defs>
	<g v:mID="5" v:index="3" v:groupContext="foregroundPage">
		<title>Page-3</title>
		<v:pageProperties v:drawingScale="0.0393701" v:pageScale="0.0393701" v:drawingUnits="24" v:shadowOffsetX="8.50394"
				v:shadowOffsetY="-8.50394"/>
		<v:layer v:name="Connector" v:index="0"/>
		<g id="shape1-1" v:mID="1" v:groupContext="shape" transform="translate(0.24,-0.24)">
			<title>Rectangle.40</title>
			<v:userDefs>
				<v:ud v:nameU="visVersion" v:val="VT0(11):26"/>
			</v:userDefs>
			<rect x="0" y="0.48" width="552.756" height="340.157" class="st1"/>
		</g>
		<g id="shape2-3" v:mID="2" v:groupContext="shape" v:layerMember="0" transform="translate(87.874,-269.531)">
			<title>Dynamic connector.41</title>
			<v:userDefs>
				<v:ud v:nameU="visVersion" v:val="VT0(11):26"/>
			</v:userDefs>
			<path d="M-11.19 340.64 L-11.55 340.64 L-14.17 340.64 A14.1732 14.1732 0 0 1 -28.35 326.46 L-28.35 312.29" class="st2"/>
		</g>
		<g id="shape4-9" v:mID="4" v:groupContext="shape" v:layerMember="0" transform="translate(340.397,-269.531)">
			<title>Dynamic connector.43</title>
			<v:userDefs>
				<v:ud v:nameU="visVersion" v:val="VT0(11):26"/>
			</v:userDefs>
			<path d="M-11.19 340.64 L-11.55 340.64 L-14.17 340.64 A14.1732 14.1732 0 0 1 -28.35 326.46 L-28.35 312.29" class="st2"/>
		</g>
		<g id="shape5-14" v:mID="5" v:groupContext="shape" transform="translate(340.397,-255.358)">
			<title>Rectangle.44</title>
			<desc>domain/</desc>
			<v:userDefs>
				<v:ud v:nameU="visVersion" v:val="VT0(11):26"/>
			</v:userDefs>
			<v:textBlock v:margins="rect(4,4,4,4)"/>
			<v:textRect cx="56.6929" cy="326.464" width="113.39" height="28.3465"/>
			<rect x="0" y="312.291" width="113.386" height="28.3465" class="st4"/>
			<text x="38.9" y="329.46" class="st5" v:langID="1033"><v:paragraph v:horizAlign="1"/><v:tabList/>domain/</text>		</g>
		<g id="shape6-17" v:mID="6" v:groupContext="shape" v:layerMember="0" transform="translate(340.397,-227.012)">
			<title>Dynamic connector.45</title>
			<v:userDefs>
				<v:ud v:nameU="visVersion" v:val="VT0(11):26"/>
			</v:userDefs>
			<path d="M-11.19 340.64 L-11.55 340.64 L-14.17 340.64 A14.1732 14.1732 0 0 1 -28.35 326.46 L-28.35 269.77" class="st2"/>
		</g>
		<g id="shape8-22" v:mID="8" v:groupContext="shape" v:layerMember="0" transform="translate(340.397,-127.799)">
			<title>Dynamic connector.48</title>
			<v:userDefs>
				<v:ud v:nameU="visVersion" v:val="VT0(11):26"/>
			</v:userDefs>
			<path d="M-11.19 340.64 L-11.55 340.64 L-14.17 340.64 A14.1732 14.1732 0 0 1 -28.35 326.46 L-28.35 170.56" class="st2"/>
		</g>
		<g id="shape10-27" v:mID="10" v:groupContext="shape" transform="translate(87.874,-255.358)">
			<title>Rectangle.47</title>
			<desc>mydomain/</desc>
			<v:userDefs>
				<v:ud v:nameU="visVersion" v:val="VT0(11):26"/>
			</v:userDefs>
			<v:textBlock v:margins="rect(4,4,4,4)" v:tabSpace="42.5197"/>
			<v:textRect cx="62.3622" cy="326.464" width="124.73" height="28.3465"/>
			<rect x="0" y="312.291" width="124.724" height="28.3465" class="st4"/>
			<text x="37.91" y="329.46" class="st5" v:langID="1033"><v:paragraph v:horizAlign="1"/><v:tabList/>mydomain/</text>		</g>
		<g id="shape11-30" v:mID="11" v:groupContext="shape" v:layerMember="0" transform="translate(255.358,-304.964)">
			<title>Dynamic connector.11</title>
			<desc>capabilitiesURI</desc>
			<v:userDefs>
				<v:ud v:nameU="visVersion" v:val="VT0(11):26"/>
			</v:userDefs>
			<v:textBlock v:margins="rect(4,4,4,4)" v:tabSpace="42.5197"/>
			<v:textRect cx="-69.5688" cy="333.551" width="77.48" height="32.0037"/>
			<path d="M-7.83 333.55 L-8.19 333.55 L-139.14 333.55" class="st6"/>
			<text x="-102.92" y="330.55" class="st5" v:langID="1033"><v:paragraph v:horizAlign="1"/><v:tabList/>capabilitiesURI<v:newlineChar/></text>		</g>
		<g id="shape13-37" v:mID="13" v:groupContext="shape" v:layerMember="0" transform="translate(425.437,-184.492)">
			<title>Dynamic connector.13</title>
			<v:userDefs>
				<v:ud v:nameU="visVersion" v:val="VT0(11):26"/>
			</v:userDefs>
			<path d="M-11.19 340.64 L-11.55 340.64 L-14.17 340.64 A14.1732 14.1732 0 0 1 -28.35 326.46 L-28.35 312.29" class="st2"/>
		</g>
		<g id="shape14-42" v:mID="14" v:groupContext="shape" transform="translate(425.437,-170.319)">
			<title>Rectangle.14</title>
			<desc>gold_container/</desc>
			<v:userDefs>
				<v:ud v:nameU="visVersion" v:val="VT0(11):26"/>
			</v:userDefs>
			<v:textBlock v:margins="rect(4,4,4,4)" v:tabSpace="42.5197"/>
			<v:textRect cx="56.6929" cy="326.464" width="113.39" height="28.3465"/>
			<rect x="0" y="312.291" width="113.386" height="28.3465" class="st4"/>
			<text x="22.5" y="329.46" class="st5" v:langID="1033"><v:paragraph v:horizAlign="1"/><v:tabList/>gold_container/</text>		</g>
		<g id="shape15-45" v:mID="15" v:groupContext="shape" v:layerMember="0" transform="translate(390.004,-161.815)">
			<title>Dynamic connector.15</title>
			<v:userDefs>
				<v:ud v:nameU="visVersion" v:val="VT0(11):26"/>
			</v:userDefs>
			<path d="M7.09 340.64 L7.09 289.61" class="st8"/>
		</g>
		<g id="shape7-48" v:mID="7" v:groupContext="shape" transform="translate(340.397,-212.838)">
			<title>Rectangle.46</title>
			<desc>container/</desc>
			<v:userDefs>
				<v:ud v:nameU="visVersion" v:val="VT0(11):26"/>
			</v:userDefs>
			<v:textBlock v:margins="rect(4,4,4,4)"/>
			<v:textRect cx="56.6929" cy="326.464" width="113.39" height="28.3465"/>
			<rect x="0" y="312.291" width="113.386" height="28.3465" class="st4"/>
			<text x="34.73" y="329.46" class="st5" v:langID="1033"><v:paragraph v:horizAlign="1"/><v:tabList/>container/</text>		</g>
		<g id="shape16-51" v:mID="16" v:groupContext="shape" v:layerMember="0" transform="translate(425.437,-85.2794)">
			<title>Dynamic connector.16</title>
			<v:userDefs>
				<v:ud v:nameU="visVersion" v:val="VT0(11):26"/>
			</v:userDefs>
			<path d="M-11.19 340.64 L-11.55 340.64 L-14.17 340.64 A14.1732 14.1732 0 0 1 -28.35 326.46 L-28.35 312.29" class="st2"/>
		</g>
		<g id="shape17-56" v:mID="17" v:groupContext="shape" transform="translate(425.437,-71.1061)">
			<title>Rectangle.17</title>
			<desc>Immutable/</desc>
			<v:userDefs>
				<v:ud v:nameU="visVersion" v:val="VT0(11):26"/>
			</v:userDefs>
			<v:textBlock v:margins="rect(4,4,4,4)" v:tabSpace="42.5197"/>
			<v:textRect cx="56.6929" cy="326.464" width="113.39" height="28.3465"/>
			<rect x="0" y="312.291" width="113.386" height="28.3465" class="st4"/>
			<text x="31.96" y="329.46" class="st5" v:langID="1033"><v:paragraph v:horizAlign="1"/><v:tabList/>Immutable/</text>		</g>
		<g id="shape9-59" v:mID="9" v:groupContext="shape" transform="translate(340.397,-113.626)">
			<title>Rectangle.49</title>
			<desc>dataobject/</desc>
			<v:userDefs>
				<v:ud v:nameU="visVersion" v:val="VT0(11):26"/>
			</v:userDefs>
			<v:textBlock v:margins="rect(4,4,4,4)"/>
			<v:textRect cx="56.6929" cy="326.464" width="113.39" height="28.3465"/>
			<rect x="0" y="312.291" width="113.386" height="28.3465" class="st4"/>
			<text x="32.23" y="329.46" class="st5" v:langID="1033"><v:paragraph v:horizAlign="1"/><v:tabList/>dataobject/</text>		</g>
		<g id="shape20-62" v:mID="20" v:groupContext="shape" v:layerMember="0" transform="translate(87.874,-227.012)">
			<title>Dynamic connector.20</title>
			<v:userDefs>
				<v:ud v:nameU="visVersion" v:val="VT0(11):26"/>
			</v:userDefs>
			<path d="M-11.19 340.64 L-11.55 340.64 L-14.17 340.64 A14.1732 14.1732 0 0 1 -28.35 326.46 L-28.35 269.77" class="st2"/>
		</g>
		<g id="shape21-67" v:mID="21" v:groupContext="shape" transform="translate(87.874,-212.838)">
			<title>Rectangle.21</title>
			<desc>mycontainer/</desc>
			<v:userDefs>
				<v:ud v:nameU="visVersion" v:val="VT0(11):26"/>
			</v:userDefs>
			<v:textBlock v:margins="rect(4,4,4,4)" v:tabSpace="42.5197"/>
			<v:textRect cx="62.3622" cy="326.464" width="124.73" height="28.3465"/>
			<rect x="0" y="312.291" width="124.724" height="28.3465" class="st4"/>
			<text x="33.74" y="329.46" class="st5" v:langID="1033"><v:paragraph v:horizAlign="1"/><v:tabList/>mycontainer/</text>		</g>
		<g id="shape22-70" v:mID="22" v:groupContext="shape" v:layerMember="0" transform="translate(343.232,-215.673)">
			<title>Dynamic connector.22</title>
			<desc>capabilitiesURI</desc>
			<v:userDefs>
				<v:ud v:nameU="visVersion" v:val="VT0(11):26"/>
			</v:userDefs>
			<v:textBlock v:margins="rect(4,4,4,4)" v:tabSpace="42.5197"/>
			<v:textRect cx="-89.2393" cy="329.87" width="77.48" height="32.0037"/>
			<path d="M-7.83 337.8 L-8.19 337.8 L-22.66 337.8 A14.1732 14.1732 0 0 1 -29.96 335.78 A2.3622 2.3622 -180 0 0 -32.4 335.78
						 A14.1732 14.1732 0 0 1 -39.7 337.8 L-52.44 337.8 A4.25197 4.25197 0 0 1 -56.69 333.55 L-56.69 333.55 A4.25197
						 4.25197 -180 0 0 -60.94 329.3 L-122.13 329.3" class="st6"/>
			<text x="-122.59" y="326.87" class="st5" v:langID="1033"><v:paragraph v:horizAlign="1"/><v:tabList/>capabilitiesURI<v:newlineChar/></text>		</g>
		<g id="shape23-76" v:mID="23" v:groupContext="shape" v:layerMember="0" transform="translate(87.874,-184.492)">
			<title>Dynamic connector.23</title>
			<v:userDefs>
				<v:ud v:nameU="visVersion" v:val="VT0(11):26"/>
			</v:userDefs>
			<path d="M-11.19 340.64 L-11.55 340.64 L-14.17 340.64 A14.1732 14.1732 0 0 1 -28.35 326.46 L-28.35 227.25" class="st2"/>
		</g>
		<g id="shape24-81" v:mID="24" v:groupContext="shape" transform="translate(87.874,-170.319)">
			<title>Rectangle.24</title>
			<desc>mygoldcontainer/</desc>
			<v:userDefs>
				<v:ud v:nameU="visVersion" v:val="VT0(11):26"/>
			</v:userDefs>
			<v:textBlock v:margins="rect(4,4,4,4)" v:tabSpace="42.5197"/>
			<v:textRect cx="62.3622" cy="326.464" width="124.73" height="28.3465"/>
			<rect x="0" y="312.291" width="124.724" height="28.3465" class="st4"/>
			<text x="24.29" y="329.46" class="st5" v:langID="1033"><v:paragraph v:horizAlign="1"/><v:tabList/>mygoldcontainer/</text>		</g>
		<g id="shape18-84" v:mID="18" v:groupContext="shape" v:layerMember="0" transform="translate(390.004,-62.6022)">
			<title>Dynamic connector.18</title>
			<v:userDefs>
				<v:ud v:nameU="visVersion" v:val="VT0(11):26"/>
			</v:userDefs>
			<path d="M7.09 340.64 L7.09 289.61" class="st8"/>
		</g>
		<g id="shape19-87" v:mID="19" v:groupContext="shape" v:layerMember="0" transform="translate(343.232,-258.193)">
			<title>Dynamic connector.19</title>
			<desc>capabilitiesURI</desc>
			<v:userDefs>
				<v:ud v:nameU="visVersion" v:val="VT0(11):26"/>
			</v:userDefs>
			<v:textBlock v:margins="rect(4,4,4,4)" v:tabSpace="42.5197"/>
			<v:textRect cx="-91.3449" cy="329.299" width="77.48" height="32.0037"/>
			<path d="M-7.83 337.8 L-8.19 337.8 L-22.66 337.8 A14.1732 14.1732 0 0 1 -29.96 335.78 A2.3622 2.3622 -180 0 0 -32.74
						 336.03 A7.08661 7.08661 0 0 1 -37.43 337.8 L-41.1 337.8 A4.25197 4.25197 0 0 1 -45.35 333.55 L-45.35 333.55
						 A4.25197 4.25197 -180 0 0 -49.61 329.3 L-122.13 329.3" class="st6"/>
			<text x="-124.69" y="326.3" class="st5" v:langID="1033"><v:paragraph v:horizAlign="1"/><v:tabList/>capabilitiesURI<v:newlineChar/></text>		</g>
		<g id="shape25-93" v:mID="25" v:groupContext="shape" v:layerMember="0" transform="translate(428.271,-173.153)">
			<title>Dynamic connector.25</title>
			<desc>capabilitiesURI</desc>
			<v:userDefs>
				<v:ud v:nameU="visVersion" v:val="VT0(11):26"/>
			</v:userDefs>
			<v:textBlock v:margins="rect(4,4,4,4)" v:tabSpace="42.5197"/>
			<v:textRect cx="-175.393" cy="329.299" width="77.48" height="32.0037"/>
			<path d="M-7.83 337.8 L-8.19 337.8 L-22.66 337.8 A14.1732 14.1732 0 0 1 -29.96 335.78 A2.3622 2.3622 -180 0 0 -32.4 335.78
						 A14.1732 14.1732 0 0 1 -39.7 337.8 L-107.7 337.8 A14.1732 14.1732 0 0 1 -115 335.78 A2.3622 2.3622 -180
						 0 0 -117.44 335.78 A14.1732 14.1732 0 0 1 -124.74 337.8 L-131.81 337.8 A4.25197 4.25197 0 0 1 -136.06 333.55
						 L-136.06 333.55 A4.25197 4.25197 -180 0 0 -140.31 329.3 L-207.17 329.3" class="st6"/>
			<text x="-208.74" y="326.3" class="st5" v:langID="1033"><v:paragraph v:horizAlign="1"/><v:tabList/>capabilitiesURI<v:newlineChar/></text>		</g>
		<g id="shape26-99" v:mID="26" v:groupContext="shape" v:layerMember="0" transform="translate(87.874,-141.972)">
			<title>Dynamic connector.26</title>
			<v:userDefs>
				<v:ud v:nameU="visVersion" v:val="VT0(11):26"/>
			</v:userDefs>
			<path d="M-11.19 340.64 L-11.55 340.64 L-14.17 340.64 A14.1732 14.1732 0 0 1 -28.35 326.46 L-28.35 184.73" class="st2"/>
		</g>
		<g id="shape27-104" v:mID="27" v:groupContext="shape" transform="translate(87.874,-127.799)">
			<title>Rectangle.27</title>
			<desc>mydataobject</desc>
			<v:userDefs>
				<v:ud v:nameU="visVersion" v:val="VT0(11):26"/>
			</v:userDefs>
			<v:textBlock v:margins="rect(4,4,4,4)" v:tabSpace="42.5197"/>
			<v:textRect cx="62.3622" cy="326.464" width="124.73" height="28.3465"/>
			<rect x="0" y="312.291" width="124.724" height="28.3465" class="st4"/>
			<text x="32.62" y="329.46" class="st5" v:langID="1033"><v:paragraph v:horizAlign="1"/><v:tabList/>mydataobject</text>		</g>
		<g id="shape28-107" v:mID="28" v:groupContext="shape" v:layerMember="0" transform="translate(343.232,-119.295)">
			<title>Dynamic connector.28</title>
			<desc>capabilitiesURI</desc>
			<v:userDefs>
				<v:ud v:nameU="visVersion" v:val="VT0(11):26"/>
			</v:userDefs>
			<v:textBlock v:margins="rect(4,4,4,4)" v:tabSpace="42.5197"/>
			<v:textRect cx="-90.9798" cy="318.532" width="77.48" height="32.0037"/>
			<path d="M-7.83 340.64 L-8.19 340.64 L-22.66 340.64 A14.1732 14.1732 0 0 1 -29.96 338.61 A2.3622 2.3622 -180 0 0 -32.4
						 338.61 A14.1732 14.1732 0 0 1 -39.7 340.64 L-39.7 340.64 A7.0735 7.0735 0 0 1 -46.77 333.56 L-46.77 332.13
						 A14.1732 14.1732 -180 0 0 -60.94 317.96 L-122.13 317.96" class="st6"/>
			<text x="-124.33" y="315.53" class="st5" v:langID="1033"><v:paragraph v:horizAlign="1"/><v:tabList/>capabilitiesURI<v:newlineChar/></text>		</g>
		<g id="shape29-113" v:mID="29" v:groupContext="shape" v:layerMember="0" transform="translate(87.874,-99.4526)">
			<title>Dynamic connector.29</title>
			<v:userDefs>
				<v:ud v:nameU="visVersion" v:val="VT0(11):26"/>
			</v:userDefs>
			<path d="M-11.19 340.64 L-11.55 340.64 L-14.17 340.64 A14.1732 14.1732 0 0 1 -28.35 326.46 L-28.35 142.21" class="st2"/>
		</g>
		<g id="shape30-118" v:mID="30" v:groupContext="shape" transform="translate(87.874,-85.2794)">
			<title>Rectangle.30</title>
			<desc>myimmutabledataobject</desc>
			<v:userDefs>
				<v:ud v:nameU="visVersion" v:val="VT0(11):26"/>
			</v:userDefs>
			<v:textBlock v:margins="rect(4,4,4,4)" v:tabSpace="42.5197"/>
			<v:textRect cx="62.3622" cy="326.464" width="124.73" height="28.3465"/>
			<rect x="0" y="312.291" width="124.724" height="28.3465" class="st4"/>
			<text x="9.56" y="329.46" class="st5" v:langID="1033"><v:paragraph v:horizAlign="1"/><v:tabList/>myimmutabledataobject</text>		</g>
		<g id="shape31-121" v:mID="31" v:groupContext="shape" v:layerMember="0" transform="translate(428.031,-76.7754)">
			<title>Dynamic connector.31</title>
			<desc>capabilitiesURI</desc>
			<v:userDefs>
				<v:ud v:nameU="visVersion" v:val="VT0(11):26"/>
			</v:userDefs>
			<v:textBlock v:margins="rect(4,4,4,4)" v:tabSpace="42.5197"/>
			<v:textRect cx="-175.786" cy="317.96" width="77.48" height="32.0037"/>
			<path d="M-7.83 340.64 L-8.19 340.64 L-22.42 340.64 A14.1732 14.1732 0 0 1 -29.72 338.61 A2.3622 2.3622 -180 0 0 -32.16
						 338.61 A14.1732 14.1732 0 0 1 -39.46 340.64 L-107.46 340.64 A14.1732 14.1732 0 0 1 -114.76 338.61 A2.3622
						 2.3622 -180 0 0 -117.2 338.61 A14.1732 14.1732 0 0 1 -124.5 340.64 L-124.5 340.64 A10.1481 10.1481 0 0 1
						 -134.65 330.49 L-134.65 330.49 A12.529 12.529 -180 0 0 -147.17 317.96 L-207.17 317.96" class="st6"/>
			<text x="-209.13" y="314.96" class="st5" v:langID="1033"><v:paragraph v:horizAlign="1"/><v:tabList/>capabilitiesURI<v:newlineChar/></text>		</g>
		<g id="shape32-127" v:mID="32" v:groupContext="shape" v:layerMember="0" transform="translate(340.397,-28.5865)">
			<title>Dynamic connector.32</title>
			<v:userDefs>
				<v:ud v:nameU="visVersion" v:val="VT0(11):26"/>
			</v:userDefs>
			<path d="M-11.19 340.64 L-11.55 340.64 L-14.17 340.64 A14.1732 14.1732 0 0 1 -28.35 326.46 L-28.35 71.35" class="st2"/>
		</g>
		<g id="shape33-132" v:mID="33" v:groupContext="shape" transform="translate(340.397,-14.4132)">
			<title>Rectangle.33</title>
			<desc>queue/</desc>
			<v:userDefs>
				<v:ud v:nameU="visVersion" v:val="VT0(11):26"/>
			</v:userDefs>
			<v:textBlock v:margins="rect(4,4,4,4)"/>
			<v:textRect cx="56.6929" cy="326.464" width="113.39" height="28.3465"/>
			<rect x="0" y="312.291" width="113.386" height="28.3465" class="st4"/>
			<text x="41.4" y="329.46" class="st5" v:langID="1033"><v:paragraph v:horizAlign="1"/><v:tabList/>queue/</text>		</g>
		<g id="shape34-135" v:mID="34" v:groupContext="shape" v:layerMember="0" transform="translate(87.874,-56.9329)">
			<title>Dynamic connector.34</title>
			<v:userDefs>
				<v:ud v:nameU="visVersion" v:val="VT0(11):26"/>
			</v:userDefs>
			<path d="M-11.19 340.64 L-11.55 340.64 L-14.17 340.64 A14.1732 14.1732 0 0 1 -28.35 326.46 L-28.35 99.69" class="st2"/>
		</g>
		<g id="shape35-140" v:mID="35" v:groupContext="shape" transform="translate(87.874,-42.7597)">
			<title>Rectangle.35</title>
			<desc>myqueue</desc>
			<v:userDefs>
				<v:ud v:nameU="visVersion" v:val="VT0(11):26"/>
			</v:userDefs>
			<v:textBlock v:margins="rect(4,4,4,4)" v:tabSpace="42.5197"/>
			<v:textRect cx="62.3622" cy="326.464" width="124.73" height="28.3465"/>
			<rect x="0" y="312.291" width="124.724" height="28.3465" class="st4"/>
			<text x="41.79" y="329.46" class="st5" v:langID="1033"><v:paragraph v:horizAlign="1"/><v:tabList/>myqueue</text>		</g>
		<g id="shape36-143" v:mID="36" v:groupContext="shape" v:layerMember="0" transform="translate(342.992,-20.0825)">
			<title>Dynamic connector.36</title>
			<desc>capabilitiesURI</desc>
			<v:userDefs>
				<v:ud v:nameU="visVersion" v:val="VT0(11):26"/>
			</v:userDefs>
			<v:textBlock v:margins="rect(4,4,4,4)" v:tabSpace="42.5197"/>
			<v:textRect cx="-91.1456" cy="303.216" width="77.48" height="32.0037"/>
			<path d="M-7.83 340.64 L-8.19 340.64 L-35.43 340.64 A14.1732 14.1732 0 0 1 -49.61 326.46 L-49.61 317.96 A14.1732 14.1732
						 -180 0 0 -63.78 303.79 L-122.13 303.79" class="st6"/>
			<text x="-124.49" y="300.22" class="st5" v:langID="1033"><v:paragraph v:horizAlign="1"/><v:tabList/>capabilitiesURI<v:newlineChar/></text>		</g>
		<g id="shape3-149" v:mID="3" v:groupContext="shape" transform="translate(2.83465,-297.878)">
			<title>Rectangle.42</title>
			<desc>“/” Root URI</desc>
			<v:userDefs>
				<v:ud v:nameU="visVersion" v:val="VT0(11):26"/>
			</v:userDefs>
			<v:textBlock v:margins="rect(4,4,4,4)" v:tabSpace="42.5197"/>
			<v:textRect cx="56.6929" cy="326.464" width="113.39" height="28.3465"/>
			<rect x="0" y="312.291" width="113.386" height="28.3465" class="st9"/>
			<text x="27.53" y="329.46" class="st10" v:langID="1033"><v:paragraph v:horizAlign="1"/><v:tabList/>“/” Root URI</text>		</g>
		<g id="shape12-152" v:mID="12" v:groupContext="shape" transform="translate(255.358,-297.878)">
			<title>Rectangle.12</title>
			<desc>cdmi_capabilities/</desc>
			<v:userDefs>
				<v:ud v:nameU="visVersion" v:val="VT0(11):26"/>
			</v:userDefs>
			<v:textBlock v:margins="rect(4,4,4,4)" v:tabSpace="42.5197"/>
			<v:textRect cx="56.6929" cy="326.464" width="113.39" height="28.3465"/>
			<rect x="0" y="312.291" width="113.386" height="28.3465" class="st4"/>
			<text x="17.23" y="329.46" class="st5" v:langID="1033"><v:paragraph v:horizAlign="1"/><v:tabList/>cdmi_capabilities/</text>		</g>
	</g>
</svg>
