<?xml version="1.0" encoding="UTF-8" standalone="no"?>
<!DOCTYPE svg PUBLIC "-//W3C//DTD SVG 1.1//EN" "http://www.w3.org/Graphics/SVG/1.1/DTD/svg11.dtd">
<!-- Generated by Microsoft Visio, SVG Export SnapshotOperation.svg Canvas 1 -->
<svg xmlns="http://www.w3.org/2000/svg" xmlns:xlink="http://www.w3.org/1999/xlink" xmlns:ev="http://www.w3.org/2001/xml-events"
		xmlns:v="http://schemas.microsoft.com/visio/2003/SVGExtensions/" width="8.8951in" height="3.234in"
		viewBox="0 0 640.447 232.848" xml:space="preserve" color-interpolation-filters="sRGB" class="st11">
	<v:documentProperties v:langID="1033" v:viewMarkup="false">
		<v:userDefs>
			<v:ud v:nameU="msvConvertTheme"/>
		</v:userDefs>
	</v:documentProperties>

	<style type="text/css">
	<![CDATA[
		.st1 {fill:none;stroke:none;stroke-linecap:round;stroke-linejoin:round;stroke-width:1}
		.st2 {fill:#000000;font-family:Calibri;font-size:4.00001em}
		.st3 {fill:#000000;font-family:Courier New;font-size:0.833336em;font-weight:bold}
		.st4 {fill:#000000;font-family:Calibri;font-size:0.916672em}
		.st5 {marker-end:url(#mrkr13-27);stroke:#000000;stroke-linecap:round;stroke-linejoin:round;stroke-width:0.72}
		.st6 {fill:#000000;fill-opacity:1;stroke:#000000;stroke-opacity:1;stroke-width:0.22222222222222}
		.st7 {fill:none;stroke:#000000;stroke-linecap:round;stroke-linejoin:round;stroke-width:1.2}
		.st8 {fill:#000000;font-family:Arial;font-size:0.833336em;font-weight:bold}
		.st9 {fill:#ffffff;stroke:#000000;stroke-linecap:round;stroke-linejoin:round;stroke-width:1.2}
		.st10 {marker-end:url(#mrkr13-50);stroke:#000000;stroke-linecap:round;stroke-linejoin:round;stroke-width:0.72}
		.st11 {fill:none;fill-rule:evenodd;font-size:12px;overflow:visible;stroke-linecap:square;stroke-miterlimit:3}
	]]>
	</style>

	<defs id="Markers">
		<g id="lend13">
			<path d="M 3 1 L 0 0 L 3 -1 L 3 1 " style="stroke:none"/>
		</g>
		<marker id="mrkr13-27" class="st6" v:arrowType="13" v:arrowSize="2" v:setback="13" refX="-13" orient="auto"
				markerUnits="strokeWidth" overflow="visible">
			<use xlink:href="#lend13" transform="scale(-4.5,-4.5) "/>
		</marker>
		<marker id="mrkr13-50" class="st6" v:arrowType="13" v:arrowSize="2" v:setback="13.5" refX="-13.5" orient="auto"
				markerUnits="strokeWidth" overflow="visible">
			<use xlink:href="#lend13" transform="scale(-4.5,-4.5) "/>
		</marker>
	</defs>
	<g v:mID="0" v:index="1" v:groupContext="foregroundPage">
		<title>Canvas 1</title>
		<v:pageProperties v:drawingScale="1" v:pageScale="1" v:drawingUnits="19" v:shadowOffsetX="0" v:shadowOffsetY="-4"/>
		<v:layer v:name="Layer 1" v:index="0"/>
		<g id="shape15-1" v:mID="15" v:groupContext="shape" transform="translate(385.697,-20.3582) scale(-1,1)">
			<title>Rectangle.15</title>
			<desc>...</desc>
			<v:textBlock v:margins="rect(0,5,0,5)" v:tabSpace="28"/>
			<v:textRect cx="26.025" cy="205.902" width="52.05" height="53.8918"/>
			<rect x="0" y="178.956" width="52.05" height="53.8918" class="st1"/>
			<text x="-44.2" y="220.3" transform="scale(-1,1)" class="st2" v:langID="1033"><v:paragraph v:horizAlign="1"/><v:tabList/>...</text>		</g>
		<g id="shape18-4" v:mID="18" v:groupContext="shape" transform="translate(174.375,-97.6082) scale(-1,1)">
			<title>Rectangle.18</title>
			<desc>PUT(Container Update) A</desc>
			<v:textBlock v:margins="rect(0,5,0,5)" v:tabSpace="28"/>
			<v:textRect cx="84.239" cy="226.348" width="168.48" height="13"/>
			<rect x="0" y="219.848" width="168.478" height="13" class="st1"/>
			<text x="-163.48" y="229.35" transform="scale(-1,1)" class="st3" v:langID="1033"><v:paragraph/><v:tabList/>PUT(Container Update) A</text>		</g>
		<g id="shape19-7" v:mID="19" v:groupContext="shape" transform="translate(210.375,-30.8582) scale(-1,1)">
			<title>Rectangle.19</title>
			<desc>PUT(Container Update) B</desc>
			<v:textBlock v:margins="rect(0,5,0,5)" v:tabSpace="28"/>
			<v:textRect cx="74.864" cy="226.348" width="149.73" height="13"/>
			<rect x="0" y="219.848" width="149.728" height="13" class="st1"/>
			<text x="-144.73" y="229.35" transform="scale(-1,1)" class="st3" v:langID="1033"><v:paragraph/><v:tabList/>PUT(Container Update) B</text>		</g>
		<g id="shape20-10" v:mID="20" v:groupContext="shape" transform="translate(283.5,-207.746) scale(-1,1)">
			<title>Rectangle.20</title>
			<desc>https://example.com/source/</desc>
			<v:textBlock v:margins="rect(0,5,0,5)" v:tabSpace="28"/>
			<v:textRect cx="77.496" cy="226.348" width="155" height="13"/>
			<rect x="0" y="219.848" width="154.992" height="13" class="st1"/>
			<text x="-149.99" y="229.65" transform="scale(-1,1)" class="st4" v:langID="1033"><v:paragraph/><v:tabList/>https://example.com/source/</text>		</g>
		<g id="shape21-13" v:mID="21" v:groupContext="shape" transform="translate(445.5,-136.608) scale(-1,1)">
			<title>Rectangle.21</title>
			<desc>https://example.com/source/cdmi_snapshots/</desc>
			<v:textBlock v:margins="rect(0,5,0,5)" v:tabSpace="28"/>
			<v:textRect cx="120.052" cy="226.348" width="240.11" height="13"/>
			<rect x="0" y="219.848" width="240.103" height="13" class="st1"/>
			<text x="-235.1" y="229.65" transform="scale(-1,1)" class="st4" v:langID="1033"><v:paragraph/><v:tabList/>https://example.com/source/cdmi_snapshots/</text>		</g>
		<g id="shape22-16" v:mID="22" v:groupContext="shape" transform="translate(560.25,-84.1082) scale(-1,1)">
			<title>Rectangle.22</title>
			<desc>https://example.com/source/cdmi_snapshots/Snap_Shot_A/</desc>
			<v:textBlock v:margins="rect(0,5,0,5)" v:tabSpace="28"/>
			<v:textRect cx="153.427" cy="226.348" width="306.86" height="13"/>
			<rect x="0" y="219.848" width="306.853" height="13" class="st1"/>
			<text x="-301.85" y="229.65" transform="scale(-1,1)" class="st4" v:langID="1033"><v:paragraph/><v:tabList/>https://example.com/source/cdmi_snapshots/Snap_Shot_A/</text>		</g>
		<g id="shape23-19" v:mID="23" v:groupContext="shape" transform="translate(652.5,-57.1082) scale(-1,1)">
			<title>Rectangle.23</title>
			<desc>https://example.com/source/cdmi_snapshots/Snap_Shot_B/</desc>
			<v:textBlock v:margins="rect(0,5,0,5)" v:tabSpace="28"/>
			<v:textRect cx="156.052" cy="226.348" width="312.11" height="13"/>
			<rect x="0" y="219.848" width="312.103" height="13" class="st1"/>
			<text x="-307.1" y="229.65" transform="scale(-1,1)" class="st4" v:langID="1033"><v:paragraph/><v:tabList/>https://example.com/source/cdmi_snapshots/Snap_Shot_B/</text>		</g>
		<g id="shape7-22" v:mID="7" v:groupContext="shape" transform="translate(247.841,-83.6218) rotate(55.8077)">
			<title>Sheet.7</title>
			<path d="M0 207.95 A131.689 65.1428 -151.5 0 0 137.6 216.22 L137.79 215.91" class="st5"/>
		</g>
		<g id="shape10-28" v:mID="10" v:groupContext="shape" transform="translate(133.898,-97.1328) rotate(35.1026)">
			<title>Sheet.10</title>
			<path d="M-0 159.22 A151.361 94.9065 -156.4 0 0 257.84 168.94 L257.85 168.58" class="st5"/>
		</g>
		<g id="shape24-33" v:mID="24" v:groupContext="shape" transform="translate(26.897,-199.608)">
			<title>Data store</title>
			<desc>Source Container</desc>
			<v:userDefs>
				<v:ud v:nameU="CH" v:val="VT0(5):26"/>
				<v:ud v:nameU="visVersion" v:val="VT0(11):26"/>
				<v:ud v:nameU="CH" v:prompt="" v:val="VT0(0):26"/>
			</v:userDefs>
			<v:textBlock v:margins="rect(2,2,2,2)"/>
			<v:textRect cx="48.9375" cy="240.85" width="90.14" height="16.0036"/>
			<path d="M0 210.48 A48.9375 10.6299 0 0 1 97.87 210.48 A48.9375 10.6299 0 1 1 0 210.48 ZM0 210.48 L0 222.22 A48.9375
						 10.6299 -180 1 0 97.87 222.22 L97.87 210.48 A48.9375 10.6299 0 1 1 0 210.48 Z" class="st7"/>
			<text x="7.26" y="243.85" class="st8" v:langID="1033"><v:paragraph v:horizAlign="1"/><v:tabList/>Source Container</text>		</g>
		<g id="shape25-36" v:mID="25" v:groupContext="shape" transform="translate(107.897,-128.766)">
			<title>Data store.25</title>
			<desc>cdmi_snapshots</desc>
			<v:userDefs>
				<v:ud v:nameU="CH" v:val="VT0(5):26"/>
				<v:ud v:nameU="visVersion" v:val="VT0(11):26"/>
				<v:ud v:nameU="CH" v:prompt="" v:val="VT0(0):26"/>
			</v:userDefs>
			<v:textBlock v:margins="rect(2,2,2,2)"/>
			<v:textRect cx="48.9375" cy="240.85" width="85.7" height="16.0036"/>
			<path d="M0 211.64 A48.9375 10.6299 0 0 1 97.87 211.64 A48.9375 10.6299 0 1 1 0 211.64 ZM0 211.64 L0 222.22 A48.9375
						 10.6299 -180 1 0 97.87 222.22 L97.87 211.64 A48.9375 10.6299 0 1 1 0 211.64 Z" class="st9"/>
			<text x="9.48" y="243.85" class="st8" v:langID="1033"><v:paragraph v:horizAlign="1"/><v:tabList/>cdmi_snapshots</text>		</g>
		<g id="shape26-39" v:mID="26" v:groupContext="shape" transform="translate(156.034,-65.6425)">
			<title>Data store.26</title>
			<desc>Snap_Shot_A</desc>
			<v:userDefs>
				<v:ud v:nameU="CH" v:val="VT0(5):26"/>
				<v:ud v:nameU="visVersion" v:val="VT0(11):26"/>
				<v:ud v:nameU="CH" v:prompt="" v:val="VT0(0):26"/>
			</v:userDefs>
			<v:textBlock v:margins="rect(2,2,2,2)"/>
			<v:textRect cx="48.9375" cy="240.85" width="80" height="16.0036"/>
			<path d="M0 211.64 A48.9375 10.6299 0 0 1 97.87 211.64 A48.9375 10.6299 0 1 1 0 211.64 ZM0 211.64 L0 222.22 A48.9375
						 10.6299 -180 1 0 97.87 222.22 L97.87 211.64 A48.9375 10.6299 0 1 1 0 211.64 Z" class="st9"/>
			<text x="16.43" y="243.85" class="st8" v:langID="1033"><v:paragraph v:horizAlign="1"/><v:tabList/>Snap_Shot_A</text>		</g>
		<g id="shape27-42" v:mID="27" v:groupContext="shape" transform="translate(240.784,-49.6082)">
			<title>Data store.27</title>
			<desc>Snap_Shot_B</desc>
			<v:userDefs>
				<v:ud v:nameU="CH" v:val="VT0(5):26"/>
				<v:ud v:nameU="visVersion" v:val="VT0(11):26"/>
				<v:ud v:nameU="CH" v:prompt="" v:val="VT0(0):26"/>
			</v:userDefs>
			<v:textBlock v:margins="rect(2,2,2,2)"/>
			<v:textRect cx="48.9375" cy="240.85" width="80" height="16.0036"/>
			<path d="M0 211.64 A48.9375 10.6299 0 0 1 97.87 211.64 A48.9375 10.6299 0 1 1 0 211.64 ZM0 211.64 L0 222.22 A48.9375
						 10.6299 -180 1 0 97.87 222.22 L97.87 211.64 A48.9375 10.6299 0 1 1 0 211.64 Z" class="st9"/>
			<text x="16.43" y="243.85" class="st8" v:langID="1033"><v:paragraph v:horizAlign="1"/><v:tabList/>Snap_Shot_B</text>		</g>
		<g id="shape1-45" v:mID="1" v:groupContext="shape" transform="translate(273.774,-134.3) rotate(45)">
			<title>Sheet.1</title>
			<path d="M0 232.85 L47.82 232.85" class="st10"/>
		</g>
		<g id="shape3-51" v:mID="3" v:groupContext="shape" transform="translate(349.149,-61.1753) rotate(45)">
			<title>Sheet.3</title>
			<path d="M0 232.85 L34.56 232.85" class="st10"/>
		</g>
	</g>
</svg>
